<svg xmlns="http://www.w3.org/2000/svg" xmlns:xlink="http://www.w3.org/1999/xlink" width="626pt" height="557pt" viewBox="0 0 626 557"><g id="graph0" class="graph" transform="scale(1 1) rotate(0) translate(4 553)"><title>Topee_Components</title><polygon fill="#fff" stroke="none" points="-4 4 -4 -553 622 -553 622 4 -4 4"/><g id="clust1" class="cluster"><title>cluster_Appex</title><polygon fill="#ccf6dd" stroke="#000" points="219 -175 219 -323 399 -323 399 -175 219 -175"/><text x="309" y="-307.8" font-family="Times New Roman,serif" font-size="14" text-anchor="middle">App Extension</text></g><g id="clust2" class="cluster"><title>cluster_WebView</title><polygon fill="#f6ddcc" stroke="#000" points="202 -8 202 -156 416 -156 416 -8 202 -8"/><text x="309" y="-140.8" font-family="Times New Roman,serif" font-size="14" text-anchor="middle">WebView</text></g><g id="clust3" class="cluster"><title>cluster_Safari</title><polygon fill="#eefbe6" stroke="#000" points="8 -354 8 -541 610 -541 610 -354 8 -354"/><text x="309" y="-525.8" font-family="Times New Roman,serif" font-size="14" text-anchor="middle">Safari tabs</text></g><g id="clust4" class="cluster"><title>cluster_Tab1</title><polygon fill="#ddf6cc" stroke="#000" points="16 -362 16 -510 206 -510 206 -362 16 -362"/><text x="111" y="-494.8" font-family="Times New Roman,serif" font-size="14" text-anchor="middle">facebook.com</text></g><g id="clust5" class="cluster"><title>cluster_Tab2</title><polygon fill="#ddf6cc" stroke="#000" points="214 -362 214 -510 404 -510 404 -362 214 -362"/><text x="309" y="-494.8" font-family="Times New Roman,serif" font-size="14" text-anchor="middle">gmail.com</text></g><g id="clust6" class="cluster"><title>cluster_Tab3</title><polygon fill="#ddf6cc" stroke="#000" points="412 -362 412 -510 602 -510 602 -362 412 -362"/><text x="507" y="-494.8" font-family="Times New Roman,serif" font-size="14" text-anchor="middle">...</text></g><g id="node1" class="node"><title>SFSafariExtensionHandler</title><polygon fill="#33dc76" stroke="#000" points="391 -292 227 -292 227 -256 391 -256 391 -292"/><text x="309" y="-270.3" font-family="Times New Roman,serif" font-size="14" text-anchor="middle">SFSafariExtensionHandler</text></g><g id="node2" class="node"><title>SafariExtensionBridge</title><polygon fill="#33dc76" stroke="#000" points="379 -219 239 -219 239 -183 379 -183 379 -219"/><text x="309" y="-197.3" font-family="Times New Roman,serif" font-size="14" text-anchor="middle">SafariExtensionBridge</text></g><g id="edge1" class="edge"><title>SFSafariExtensionHandler-&gt;SafariExtensionBridge</title><path fill="none" stroke="#000" d="M309,-255.813C309,-247.789 309,-238.047 309,-229.069"/><polygon fill="#000" stroke="#000" points="312.5 -229.029 309 -219.029 305.5 -229.029 312.5 -229.029"/></g><g id="node3" class="node"><title>topee_background</title><polygon fill="#dc7633" stroke="#000" points="376 -125 242 -125 242 -89 376 -89 376 -125"/><text x="309" y="-103.3" font-family="Times New Roman,serif" font-size="14" text-anchor="middle">topee_background.js</text></g><g id="edge3" class="edge"><title>SafariExtensionBridge-&gt;topee_background</title><path fill="none" stroke="#000" d="M309,-182.696C309,-169.46 309,-150.947 309,-135.663"/><polygon fill="#000" stroke="#000" points="312.5 -135.227 309 -125.227 305.5 -135.227 312.5 -135.227"/></g><g id="node4" class="node"><title>extension_background</title><polygon fill="#dc7633" stroke="#000" points="408 -52 210 -52 210 -16 408 -16 408 -52"/><text x="309" y="-30.3" font-family="Times New Roman,serif" font-size="14" text-anchor="middle">chrome extension background.js</text></g><g id="edge2" class="edge"><title>topee_background-&gt;extension_background</title><path fill="none" stroke="#000" d="M309,-88.8129C309,-80.7895 309,-71.0475 309,-62.0691"/><polygon fill="#000" stroke="#000" points="312.5 -62.029 309 -52.029 305.5 -62.029 312.5 -62.029"/></g><g id="node5" class="node"><title>topee_content1</title><polygon fill="#76dc33" stroke="#000" points="189.5 -406 80.5 -406 80.5 -370 189.5 -370 189.5 -406"/><text x="135" y="-384.3" font-family="Times New Roman,serif" font-size="14" text-anchor="middle">topee_content.js</text></g><g id="edge7" class="edge"><title>topee_content1-&gt;SFSafariExtensionHandler</title><path fill="none" stroke="#000" d="M161.427,-369.99C191.448,-350.665 240.573,-319.045 273.818,-297.646"/><polygon fill="#000" stroke="#000" points="275.81 -300.526 282.324 -292.17 272.021 -294.64 275.81 -300.526"/><text x="260" y="-334.8" font-family="Times New Roman,serif" font-size="14" text-anchor="middle">SFSafariPage</text></g><g id="node6" class="node"><title>extension_content1</title><polygon fill="#76dc33" stroke="#000" points="197.5 -479 24.5 -479 24.5 -443 197.5 -443 197.5 -479"/><text x="111" y="-457.3" font-family="Times New Roman,serif" font-size="14" text-anchor="middle">chrome extension content.js</text></g><g id="edge4" class="edge"><title>extension_content1-&gt;topee_content1</title><path fill="none" stroke="#000" d="M116.81,-442.813C119.551,-434.702 122.887,-424.836 125.949,-415.777"/><polygon fill="#000" stroke="#000" points="129.357 -416.623 129.244 -406.029 122.726 -414.381 129.357 -416.623"/></g><g id="node7" class="node"><title>topee_content2</title><polygon fill="#76dc33" stroke="#000" points="363.5 -406 254.5 -406 254.5 -370 363.5 -370 363.5 -406"/><text x="309" y="-384.3" font-family="Times New Roman,serif" font-size="14" text-anchor="middle">topee_content.js</text></g><g id="edge8" class="edge"><title>topee_content2-&gt;SFSafariExtensionHandler</title><path fill="none" stroke="#000" d="M309,-369.99C309,-352.063 309,-323.555 309,-302.442"/><polygon fill="#000" stroke="#000" points="312.5 -302.17 309 -292.17 305.5 -302.171 312.5 -302.17"/><text x="347" y="-334.8" font-family="Times New Roman,serif" font-size="14" text-anchor="middle">SFSafariPage</text></g><g id="node8" class="node"><title>extension_content2</title><polygon fill="#76dc33" stroke="#000" points="395.5 -479 222.5 -479 222.5 -443 395.5 -443 395.5 -479"/><text x="309" y="-457.3" font-family="Times New Roman,serif" font-size="14" text-anchor="middle">chrome extension content.js</text></g><g id="edge5" class="edge"><title>extension_content2-&gt;topee_content2</title><path fill="none" stroke="#000" d="M309,-442.813C309,-434.789 309,-425.047 309,-416.069"/><polygon fill="#000" stroke="#000" points="312.5 -416.029 309 -406.029 305.5 -416.029 312.5 -416.029"/></g><g id="node9" class="node"><title>topee_content3</title><text x="483" y="-384.3" fill="#ddf6cc" font-family="Times New Roman,serif" font-size="14" text-anchor="middle">topee_content.js</text></g><g id="edge9" class="edge"><title>topee_content3-&gt;SFSafariExtensionHandler</title><path fill="none" stroke="#000" d="M456.573,-369.99C426.552,-350.665 377.427,-319.045 344.182,-297.646"/><polygon fill="#000" stroke="#000" points="345.979 -294.64 335.676 -292.17 342.19 -300.526 345.979 -294.64"/><text x="455" y="-334.8" font-family="Times New Roman,serif" font-size="14" text-anchor="middle">SFSafariPage</text></g><g id="node10" class="node"><title>extension_content3</title><text x="507" y="-457.3" fill="#ddf6cc" font-family="Times New Roman,serif" font-size="14" text-anchor="middle">chrome extension content.js</text></g><g id="edge6" class="edge"><title>extension_content3-&gt;topee_content3</title><path fill="none" stroke="none" d="M501.19,-442.813C498.449,-434.702 495.113,-424.836 492.051,-415.777"/><polygon fill="none" stroke="none" points="495.274 -414.381 488.756 -406.029 488.643 -416.623 495.274 -414.381"/></g></g></svg>